<?xml version="1.0" standalone="no"?>
<!DOCTYPE svg PUBLIC "-//W3C//DTD SVG 20010904//EN"
 "http://www.w3.org/TR/2001/REC-SVG-20010904/DTD/svg10.dtd">
<svg version="1.0" xmlns="http://www.w3.org/2000/svg"
 width="512.000000pt" height="512.000000pt" viewBox="0 0 512.000000 512.000000"
 preserveAspectRatio="xMidYMid meet">

<g transform="translate(0.000000,512.000000) scale(0.100000,-0.100000)"
fill="#000000" stroke="none">
<path d="M3659 4897 c-55 -21 -125 -83 -148 -131 -17 -34 -21 -62 -21 -148 0
-146 14 -172 140 -255 52 -34 104 -68 116 -76 11 -9 49 -84 88 -176 63 -149
77 -174 185 -319 64 -86 132 -169 149 -184 42 -35 104 -52 170 -45 67 7 115
37 147 91 31 52 32 105 6 230 l-19 89 51 96 c133 249 136 263 87 416 -54 168
-86 195 -271 225 -108 18 -151 31 -334 106 -223 91 -282 105 -346 81z m305
-216 c189 -76 237 -91 331 -106 61 -9 120 -23 132 -31 28 -18 77 -165 70 -210
-3 -17 -37 -88 -77 -158 -39 -70 -74 -146 -79 -169 -5 -28 -2 -71 10 -132 29
-150 23 -175 -43 -175 -39 0 -65 26 -178 177 -98 131 -114 159 -170 296 -35
84 -72 165 -83 181 -11 16 -66 58 -121 94 -56 35 -107 71 -113 80 -8 10 -13
47 -13 95 0 78 1 80 36 113 19 19 45 34 56 34 12 0 121 -40 242 -89z"/>
<path d="M2695 4760 c-143 -6 -177 -11 -211 -28 -50 -25 -98 -78 -115 -126
-15 -42 -11 -41 -75 -21 -102 32 -152 35 -324 20 -207 -19 -272 -36 -335 -83
-41 -31 -100 -115 -118 -167 -2 -6 -48 -1 -120 14 -127 26 -192 25 -249 -5
-105 -54 -371 -229 -401 -265 -40 -46 -57 -102 -57 -188 l0 -60 -83 -54 c-98
-64 -122 -101 -122 -188 1 -108 87 -199 188 -199 22 0 116 21 211 47 l171 48
75 70 c41 38 89 82 107 98 l31 29 56 -21 c73 -27 99 -26 164 4 30 14 60 25 67
25 14 0 55 -91 55 -124 0 -11 -16 -109 -36 -218 -37 -192 -37 -197 -21 -240 9
-24 49 -82 88 -128 39 -47 80 -104 91 -128 10 -23 32 -111 48 -194 16 -83 36
-161 45 -174 23 -35 57 -54 130 -73 62 -15 70 -21 214 -158 83 -78 165 -149
184 -156 18 -8 101 -25 185 -38 95 -14 152 -27 152 -35 0 -6 -16 -32 -36 -58
-19 -25 -42 -62 -50 -81 -18 -45 -29 -142 -20 -189 4 -21 52 -104 115 -199 85
-129 116 -167 144 -180 19 -9 41 -17 49 -17 36 -1 38 -15 13 -78 -34 -84 -33
-136 5 -196 33 -52 34 -50 -24 -120 -39 -46 -41 -51 -41 -116 0 -57 4 -72 23
-92 21 -23 22 -33 22 -169 0 -79 5 -162 11 -184 16 -58 51 -99 111 -129 104
-52 170 -27 245 91 121 190 127 211 108 371 -7 59 -11 110 -8 115 2 4 52 40
111 79 58 39 119 85 134 102 16 17 44 73 64 124 20 51 46 107 58 125 12 17 69
67 126 110 58 43 118 90 134 105 39 37 76 118 76 168 0 49 4 53 100 93 150 64
182 140 114 273 -59 116 -123 155 -310 189 l-126 23 -39 62 c-69 109 -68 109
-504 181 -228 38 -392 60 -410 57 -16 -4 -47 -15 -67 -25 -21 -11 -44 -19 -51
-19 -8 0 -40 34 -71 76 -63 83 -96 107 -168 124 -26 7 -51 16 -53 21 -3 5 17
43 45 84 l51 76 52 -38 c29 -20 71 -52 95 -70 58 -42 104 -57 164 -50 61 8
103 32 131 77 18 29 22 53 25 145 1 61 5 119 7 131 3 11 43 74 90 140 l86 119
117 6 c111 5 122 8 231 54 127 53 170 86 200 149 35 71 29 133 -30 299 -28 82
-64 163 -81 187 -37 50 -298 226 -367 247 -55 17 -158 4 -209 -28 -58 -34 -74
-73 -69 -162 7 -106 0 -109 -123 -47 -53 27 -103 56 -111 66 -21 26 -18 97 6
124 11 12 81 66 157 121 75 54 150 115 167 136 74 89 55 227 -40 290 -48 32
-105 35 -374 23z m311 -155 c28 -43 6 -71 -139 -175 -72 -52 -146 -108 -165
-124 -68 -60 -95 -156 -68 -248 24 -81 59 -116 187 -183 137 -71 177 -76 253
-31 66 39 89 90 80 180 l-7 65 42 11 c23 6 52 8 64 4 12 -4 81 -47 154 -95
149 -100 147 -97 204 -268 62 -184 58 -194 -107 -260 -94 -38 -108 -41 -199
-41 -143 0 -157 -9 -277 -173 -54 -74 -103 -147 -110 -163 -6 -16 -14 -85 -17
-154 l-6 -125 -28 -3 c-21 -3 -49 12 -118 63 -50 37 -107 73 -126 82 -45 18
-104 9 -142 -22 -42 -36 -142 -200 -148 -243 -11 -81 42 -144 145 -173 53 -14
61 -21 118 -95 34 -43 75 -87 90 -96 41 -25 109 -22 171 6 l51 24 355 -58
c195 -32 363 -63 375 -69 11 -6 32 -32 47 -58 56 -97 71 -105 247 -138 149
-28 187 -49 219 -119 22 -50 21 -51 -84 -96 -101 -43 -133 -79 -142 -157 -3
-32 -13 -71 -21 -88 -9 -18 -64 -66 -134 -117 -141 -103 -175 -146 -226 -281
l-38 -98 -110 -76 c-187 -128 -195 -140 -176 -280 21 -160 19 -169 -50 -283
-54 -87 -65 -100 -84 -94 -48 14 -51 24 -56 214 -5 168 -6 180 -27 202 -31 33
-29 43 17 98 70 84 77 132 29 220 l-32 57 27 65 c31 79 32 99 6 155 -20 46
-62 77 -115 87 -28 6 -44 23 -125 146 l-93 140 6 56 c5 44 14 66 45 107 55 73
62 90 62 143 0 55 -25 101 -68 126 -17 10 -99 29 -187 43 -87 14 -164 29 -171
33 -7 4 -75 66 -151 139 -158 149 -189 170 -256 179 -58 8 -56 5 -86 174 -26
149 -63 233 -147 330 -94 109 -90 83 -49 287 19 98 35 200 35 226 0 49 -39
161 -72 210 -43 62 -128 74 -221 32 l-55 -26 -51 21 c-102 40 -132 29 -264
-94 l-101 -94 -146 -41 c-81 -23 -157 -41 -168 -41 -28 0 -56 43 -48 73 4 16
33 41 86 75 103 66 120 93 120 194 0 42 5 89 12 103 13 29 347 241 396 251 16
3 75 -4 132 -15 186 -38 227 -25 285 89 57 113 76 122 325 145 171 16 206 13
303 -24 65 -25 150 -3 186 48 10 14 24 43 30 64 7 20 22 42 34 49 13 7 91 15
182 18 293 12 273 13 291 -15z"/>
</g>
</svg>
