<?xml version="1.0" standalone="no"?>
<!DOCTYPE svg PUBLIC "-//W3C//DTD SVG 20010904//EN"
 "http://www.w3.org/TR/2001/REC-SVG-20010904/DTD/svg10.dtd">
<svg version="1.0" xmlns="http://www.w3.org/2000/svg"
 width="512.000000pt" height="512.000000pt" viewBox="0 0 512.000000 512.000000"
 preserveAspectRatio="xMidYMid meet">

<g transform="translate(0.000000,512.000000) scale(0.100000,-0.100000)"
fill="#000000" stroke="none">
<path d="M4326 4799 c-32 -11 -82 -35 -110 -53 -84 -55 -560 -509 -581 -555
-17 -40 -17 -61 1 -172 5 -31 2 -39 -21 -58 -36 -28 -108 -28 -152 -1 -18 11
-33 26 -33 34 0 8 19 42 41 75 67 96 65 197 -6 259 -47 42 -374 152 -516 173
-161 25 -294 -23 -419 -151 -72 -74 -104 -121 -241 -354 -87 -148 -164 -229
-270 -285 -98 -53 -142 -90 -208 -179 -66 -91 -92 -145 -98 -208 -5 -45 -2
-59 20 -96 50 -87 175 -122 287 -83 23 8 44 15 46 15 2 0 4 -22 4 -49 0 -144
38 -281 92 -326 46 -39 89 -42 154 -10 69 34 127 104 193 235 91 182 101 279
36 364 l-33 44 54 167 c64 195 71 212 119 254 40 35 60 38 93 15 33 -23 27
-52 -30 -145 -69 -113 -87 -151 -97 -207 -10 -48 0 -126 18 -161 18 -34 80
-80 122 -91 58 -16 97 -7 222 52 59 27 114 48 122 45 12 -5 11 -17 -6 -79 -40
-145 -103 -228 -196 -259 -28 -9 -48 -9 -90 1 -50 12 -58 12 -98 -8 -31 -15
-52 -35 -71 -68 -25 -42 -29 -61 -33 -160 -5 -100 -9 -115 -29 -137 -55 -58
-160 -81 -429 -92 l-143 -6 6 103 c5 95 4 107 -18 147 -30 59 -80 85 -163 85
-74 0 -130 -25 -162 -74 -20 -28 -23 -46 -23 -127 l0 -93 -47 -33 c-82 -56
-143 -119 -184 -189 -29 -50 -49 -72 -73 -82 -36 -15 -66 -50 -66 -77 0 -9 9
-28 21 -43 26 -33 78 -35 134 -3 39 22 64 52 128 152 20 30 63 73 112 110 106
80 129 121 122 223 -5 64 -3 73 14 83 11 5 29 7 40 4 19 -6 20 -12 14 -118 -7
-133 5 -170 68 -201 36 -17 52 -18 260 -8 306 15 404 41 494 133 54 54 73 110
73 218 0 47 4 91 8 96 4 6 43 10 87 10 90 1 155 25 229 87 85 70 169 257 183
404 6 62 5 64 -29 98 -70 70 -164 69 -313 -3 -104 -50 -117 -54 -140 -37 -35
26 -24 86 31 174 85 136 99 170 99 243 0 55 -4 72 -28 106 -80 115 -241 119
-352 8 -49 -49 -78 -111 -142 -304 -68 -205 -73 -259 -28 -315 17 -21 34 -44
40 -52 30 -42 -151 -382 -185 -348 -21 21 -32 164 -24 281 11 148 10 164 -17
186 -35 28 -72 21 -125 -24 -66 -55 -116 -79 -162 -79 -76 0 -77 33 -6 142 56
84 93 116 194 168 129 68 212 161 340 385 123 214 195 302 287 348 105 54 184
46 453 -42 133 -43 176 -61 178 -75 2 -10 -18 -49 -44 -87 -41 -60 -48 -76
-47 -118 1 -60 21 -99 75 -145 103 -88 277 -87 371 2 52 49 70 97 63 166 -4
34 -8 73 -9 88 -2 23 34 60 248 262 179 169 266 244 305 264 l55 27 293 3 292
3 0 -189 c0 -171 2 -192 19 -213 26 -32 86 -32 112 0 17 21 19 44 19 265 0
230 -1 243 -20 264 -21 22 -23 22 -368 22 -322 -1 -351 -2 -406 -21z"/>
<path d="M4990 4038 c-20 -22 -20 -27 -20 -1324 l0 -1303 -112 54 c-195 94
-285 115 -337 79 -78 -55 -65 -262 22 -361 17 -20 64 -51 104 -70 88 -43 103
-68 103 -176 0 -86 7 -79 -104 -98 -108 -18 -148 -78 -91 -134 29 -29 32 -30
145 -9 165 30 200 70 200 225 0 175 -40 253 -164 315 -83 41 -106 66 -113 125
-5 31 -2 39 10 39 9 0 104 -45 213 -99 170 -86 200 -98 222 -90 54 21 51 -61
52 1425 l0 1381 -23 21 c-31 29 -80 29 -107 0z"/>
<path d="M891 2266 c-136 -45 -171 -185 -102 -410 42 -136 45 -205 11 -241
-44 -46 -100 -36 -340 65 -171 72 -229 70 -304 -8 -24 -25 -39 -68 -88 -244
-32 -117 -61 -242 -65 -279 -11 -127 44 -236 160 -310 70 -46 166 -77 328
-109 96 -18 122 -20 157 -10 58 15 107 61 127 118 68 190 116 236 265 256 83
12 127 54 145 139 l5 27 138 0 c110 0 154 4 213 21 133 38 131 38 162 -19 15
-27 52 -109 82 -183 30 -73 80 -173 111 -222 59 -93 80 -152 62 -174 -24 -30
-103 -73 -133 -73 -69 0 -99 -83 -56 -153 26 -43 108 -120 149 -141 41 -21
135 -21 197 1 49 16 142 98 190 166 14 19 31 30 54 32 46 6 80 30 97 70 34 82
3 162 -92 236 -78 62 -91 84 -144 234 -23 66 -59 152 -81 192 -21 40 -39 74
-39 77 0 7 390 -222 413 -243 16 -13 18 -25 12 -77 -10 -94 8 -145 75 -218 45
-47 59 -71 65 -104 16 -97 82 -131 204 -106 42 9 87 18 100 20 13 3 39 20 58
39 45 45 45 92 -2 185 -19 38 -35 72 -35 75 0 3 33 5 74 5 86 0 112 14 214
113 104 102 116 128 151 318 17 91 31 168 31 170 0 3 17 3 38 1 44 -3 94 24
120 67 l17 29 28 -24 c21 -18 40 -24 73 -24 44 0 49 3 147 99 56 54 117 106
136 116 l34 17 -7 -29 c-11 -43 -49 -87 -118 -135 -75 -52 -108 -97 -108 -147
1 -49 30 -111 69 -144 39 -32 101 -36 173 -11 26 8 61 14 80 12 30 -3 33 -6
33 -38 0 -32 -3 -35 -43 -47 -24 -7 -105 -20 -180 -29 -236 -28 -310 -42 -369
-69 -70 -32 -101 -60 -153 -141 -29 -44 -52 -66 -81 -79 -49 -22 -93 -71 -109
-121 -16 -49 -8 -140 18 -190 32 -63 108 -157 148 -184 59 -39 171 -35 338 13
141 40 197 45 253 22 46 -19 136 -19 174 0 64 33 197 126 203 141 12 31 6 61
-17 82 -40 37 -74 28 -189 -49 -64 -44 -78 -46 -149 -23 -71 23 -175 14 -328
-30 -165 -48 -189 -47 -234 4 -49 53 -79 115 -75 153 3 27 12 36 58 62 43 24
67 47 106 105 78 113 85 116 379 150 279 32 366 67 396 158 15 46 6 144 -18
184 -40 69 -162 99 -263 63 -84 -30 -94 -13 -21 35 61 38 122 104 152 162 18
32 23 59 23 108 -1 210 -180 221 -377 22 l-79 -79 -36 18 c-71 36 -154 18
-189 -42 -16 -27 -22 -30 -50 -24 -63 12 -116 -35 -143 -125 -11 -36 -29 -121
-41 -190 -24 -142 -36 -166 -118 -243 l-59 -54 -95 -6 c-186 -11 -225 -70
-150 -229 20 -43 34 -80 32 -82 -2 -2 -20 -6 -41 -9 -36 -5 -36 -5 -47 38 -8
33 -26 59 -71 104 l-61 59 7 80 c6 71 4 86 -16 126 -26 55 -25 54 -270 198
-299 176 -297 175 -371 137 -30 -15 -46 -32 -61 -66 -25 -57 -19 -95 32 -189
21 -40 56 -121 78 -182 72 -194 117 -268 202 -327 22 -15 40 -31 40 -34 0 -4
-15 -12 -32 -19 -41 -14 -83 -53 -125 -115 -18 -26 -47 -56 -65 -67 -41 -25
-99 -26 -128 -2 l-22 18 52 33 c29 19 70 51 92 72 l41 38 -7 73 c-8 77 -35
148 -84 220 -40 59 -66 112 -129 263 -111 269 -173 311 -366 250 -69 -22 -96
-25 -228 -25 -130 0 -155 -3 -189 -20 -40 -21 -68 -61 -79 -114 -6 -28 -11
-31 -75 -42 -90 -17 -145 -45 -198 -102 -53 -57 -88 -116 -118 -199 -12 -34
-28 -64 -35 -67 -24 -9 -259 45 -320 73 -64 30 -108 68 -132 115 -22 43 -12
108 49 331 46 166 56 190 74 193 12 2 86 -24 166 -57 79 -33 164 -65 189 -70
71 -17 149 -13 199 10 59 27 77 44 108 104 39 76 35 165 -13 329 -59 202 -45
242 80 231 63 -6 74 -4 98 15 35 28 37 77 4 108 -30 28 -161 39 -226 18z"/>
</g>
</svg>
